<svg xmlns="http://www.w3.org/2000/svg" id="Layer_2" viewBox="0 0 1275.51 386.98"><defs><style>.cls-1{fill:#fd0100;}.cls-2{fill:#fff;}</style></defs><g id="Layer_1-2"><g><polygon class="cls-1" points="581.94 173.15 583.53 186.34 567.69 282.93 566.64 300.88 624.17 300.88 623.64 286.1 638.42 197.42 639.48 173.68 581.94 173.15"></polygon><path class="cls-1" d="M185.38,134.41L41.71,111.23l76.47,103.11L0,345.27l162.21-61.41,88.06,103.12L310.52,0l-125.13,134.41Zm42.87,144.83l-40.55-41.71-63.72,19.7L249.11,122.82l-20.86,156.42Z"></path><path class="cls-2" d="M265.72,195.81c0,39.68-32.17,71.84-71.84,71.84s-71.84-32.16-71.84-71.84,32.17-71.83,71.84-71.83,71.84,32.15,71.84,71.83"></path><polygon class="cls-1" points="166.85 171.86 203.92 152.56 203.92 222.07 184.61 222.07 184.61 184.23 167.62 192.72 166.85 171.86"></polygon><polygon class="cls-1" points="235.89 285.42 187.7 237.52 108.91 261.85 235.89 285.42"></polygon><path class="cls-1" d="M409.87,171.04c-23.5-2.81-39.3,6.27-47.26,12.68l1.34-10.57-51.2,.18v9.85l-23.22,143.05,.53,17.94h54.89l-1.05-12.67,5.32-42.02c34.28,33.31,83.84,8.22,97.07-35.05,13.72-44.86-1.05-79.17-36.42-83.39m-16.97,69.43c-1.83,10.68-10.9,18.03-20.26,16.43-9.35-1.61-15.46-11.57-13.63-22.25,1.83-10.68,10.9-18.03,20.26-16.43,9.36,1.61,15.46,11.57,13.63,22.25"></path><path class="cls-1" d="M473.74,173.15l1.05,17.95-16.89,100.81-.53,9.5h55.43l6.86-52.79s4.75-37.48,44.34-21.64l10.03-57.01s-31.67-5.28-43.81,18.48l-2.11-16.36s-54.37,2.64-54.37,1.05"></path><path class="cls-1" d="M660.59,173.15l.53,9.5-19.53,118.23h57l11.09-69.68,1.59-4.75s2.11-10.03,14.25-6.86c0,0,6.33,1.59,4.22,12.67-2.11,11.09-11.61,68.62-11.61,68.62h54.9l12.67-72.32s1.05-10.03,11.08-9.5c10.03,.53,6.34,13.72,6.34,13.72l-7.39,59.65,2.64,8.45h52.25v-11.62l11.61-79.17s2.64-36.42-32.2-39.06c-34.84-2.64-45.39,17.94-45.39,17.94,0,0-26.92-41.16-68.09-3.17l-2.64-13.72-53.31,1.05Z"></path><path class="cls-1" d="M999.98,233.32c12.14-25.34,1.59-51.73-26.92-59.65-28.5-7.92-80.23-1.58-95.54,46.97-15.31,48.56,3.69,77.06,48.03,82.87,44.34,5.81,70.2-18.47,70.2-18.47l-15.31-26.4c-54.89,20.59-55.43-7.39-55.43-7.39,32.72,6.33,62.81,7.39,74.95-17.94m-72.31-12.67c21.64-31.14,33.78-9.5,33.78-9.5-1.05,20.58-33.78,9.5-33.78,9.5"></path><path class="cls-1" d="M1024.79,173.15v22.17l-18.47,107.15h57.01l10.03-61.75s7.39-25.34,35.89-16.36c0,0,1.58-26.92,26.92-47.5,0,0-31.67-19-56.48,10.55l.53-14.78-55.42,.53Z"></path><path class="cls-1" d="M1221.14,173.67v7.39l-.03,.17c-58.5-38.82-93.92,32.02-93.92,32.02-25.34,73.37,20.58,88.15,20.58,88.15,29.45,10.39,49.35-3.55,59.55-14.35l-.42,3.26v10.56h52.78l.53-19.53,15.31-107.68h-54.37Zm-10.03,66.35c-2.78,11.18-12.25,18.44-21.15,16.22-8.9-2.22-13.86-13.07-11.09-24.25,2.78-11.17,12.25-18.44,21.15-16.21,8.9,2.21,13.86,13.06,11.09,24.24"></path><path class="cls-1" d="M504.74,47.23v6.18l-.02,.15c-48.99-32.51-78.67,26.82-78.67,26.82-21.22,61.45,17.24,73.83,17.24,73.83,24.67,8.7,41.33-2.97,49.87-12.02l-.36,2.73v8.84h44.21l.44-16.36,12.82-90.18h-45.53Zm-8.4,55.57c-2.33,9.36-10.26,15.44-17.72,13.59-7.46-1.86-11.61-10.95-9.29-20.31,2.33-9.35,10.26-15.44,17.72-13.59,7.45,1.86,11.61,10.95,9.28,20.31"></path><path class="cls-1" d="M648.98,124.85c3.99,13.56-6.46,28.58-23.32,33.53-16.86,4.96-33.77-2.02-37.75-15.58s6.46-28.58,23.32-33.54c16.87-4.95,33.77,2.02,37.75,15.59"></path><path class="cls-1" d="M314.34,152.03h101.34s-13.72-21.64-11.61-39.06h-37.48l15.84-101.87h-46.98l-21.11,140.93Z"></path></g></g></svg>