<?xml version="1.0" encoding="iso-8859-1"?>
<!-- Generator: Adobe Illustrator 21.0.0, SVG Export Plug-In . SVG Version: 6.00 Build 0)  -->
<svg xmlns="http://www.w3.org/2000/svg" xmlns:xlink="http://www.w3.org/1999/xlink" version="1.1" id="Capa_1" x="0px" y="0px" viewBox="0 0 497.256 497.256" style="enable-background:new 0 0 497.256 497.256;" xml:space="preserve" width="512" height="512">
<g>
	<g>
		<path style="fill:#FFFFFF;stroke:#000000;stroke-width:15;stroke-linecap:round;stroke-linejoin:round;stroke-miterlimit:10;" d="    M335.341,156.33"/>
		<g>
			<polygon style="fill:#E2A975;" points="264.961,166.154 266.224,164.602 244.875,185.138 245.048,185.311    "/>
			<path style="fill:#E2A975;" d="M266.224,164.602l-1.263,1.552l-19.913,19.157l22.362,22.362l21.656-20.832l-0.097,0.529     l-21.336,20.525l22.312,22.312l21.732-20.905l0.218,0.226l-21.727,20.901l22.535,22.535l49.295-47.421     c15.712,17.607,3.43,37.514-8.86,48.004c-6.017,5.265-9.574,13.834-6.375,20.824c3.128,6.971,15.122,8.227,24.419,0.276     c26.297-22.454,53.748-68.673,30.118-109.804l21.983-21.147l-69.336-72.078l-20.709,19.922c0,0-23.165-13.277-54.694,17.053     c-20.263,19.492-42.808,41.117-56.229,53.982l22.563,22.563L266.224,164.602z"/>
			
				<rect x="285.844" y="219.71" transform="matrix(0.7207 -0.6932 0.6932 0.7207 -68.3763 270.0134)" style="fill:#E2A975;" width="30.152" height="0.314"/>
			<polygon style="fill:#E2A975;" points="288.968,187.371 289.065,186.841 267.41,207.673 267.632,207.896    "/>
		</g>
		<g>
			<path style="fill:#FFE4C2;" d="M210.348,174.041"/>
			<line style="fill:#C38C66;" x1="266.224" y1="164.602" x2="266.223" y2="164.601"/>
			<path style="fill:#C38C66;" d="M363.518,264.375c16.18-15.564,20.47-38.766-1.539-58.814c6.299,7.059,8.092,15.843,7.195,21.531     c-1.67,10.584-8.315,20.042-14.839,25.402c-7.893,6.485-12.931,17.029-5.56,24.691c1.694,1.761,4.335,2.656,7.22,2.894     C355.84,274.422,359.111,268.614,363.518,264.375z"/>
		</g>
		<g>
			<path style="fill:#C38C66;" d="M288.94,119.404c31.529-30.329,54.694-17.053,54.694-17.053l20.71-19.922l-10.399-10.81     l-20.709,19.922c-19.504-8.863-40.865,3.749-54.694,17.053c-1.135,1.091-36.985,35.497-56.237,53.973l10.616,10.616     C246.775,159.901,269.945,137.677,288.94,119.404z"/>
			<polygon style="fill:#C38C66;" points="276.608,175.426 266.209,164.616 244.875,185.138 255.483,195.747    "/>
			<polygon style="fill:#C38C66;" points="298.559,198.517 288.162,187.708 267.409,207.672 278.016,218.279    "/>
			<polygon style="fill:#C38C66;" points="320.495,221.235 310.308,210.645 289.958,230.221 300.35,240.613    "/>
		</g>
		<path style="fill:#FFE07D;" d="M343.379,60.292c-1.05,1.013-1.08,2.703-0.067,3.757l86.872,90.199    c1.013,1.054,2.701,1.088,3.752,0.074l61.88-59.562c1.051-1.012,1.081-2.694,0.067-3.747l-86.881-90.2    c-1.013-1.054-2.701-1.087-3.752-0.074L343.379,60.292z"/>
		<path style="fill:#FFD064;" d="M343.379,60.292c-1.05,1.013-1.08,2.703-0.067,3.757l20.689,21.481    c-0.889-1.059-0.831-2.647,0.176-3.618l61.871-59.553c1.051-1.014,2.738-0.98,3.752,0.074l-20.798-21.62    c-1.013-1.054-2.701-1.087-3.752-0.074L343.379,60.292z"/>
		<g>
			<path style="fill:#FFFFFF;" d="M457.323,93.756c2.872,2.985,2.78,7.733-0.206,10.605l-14.643,14.086     c-2.985,2.872-7.733,2.78-10.605-0.206c-2.872-2.985-2.78-7.733,0.206-10.605l14.643-14.086     C449.704,90.678,454.451,90.771,457.323,93.756z"/>
		</g>
	</g>
	<g>
		<path style="fill:#FFFFFF;stroke:#000000;stroke-width:15;stroke-linecap:round;stroke-linejoin:round;stroke-miterlimit:10;" d="    M156.962,161.979"/>
		<g>
			<path style="fill:#FFE4C2;" d="M197.409,287.388c5.739-5.517,6.479-14.248,2.152-20.606l-34.327-35.686l1.552,1.263     l31.071,32.297c0.643,0.668,1.2,1.384,1.704,2.125l12.107,12.586l8.864-36.746l-33.059-34.367l0.529,0.097l32.618,33.906     l8.776-36.383l-19.462-20.232l0.226-0.218l19.323,20.086l8.864-36.746l-32.172-33.443c17.607-15.712,37.513-3.43,48.004,8.86     c5.265,6.017,13.834,9.574,20.824,6.375c6.972-3.128,8.227-15.122,0.276-24.419c-22.453-26.297-68.673-53.748-109.804-30.118     L144.329,74.04l-72.078,69.336l19.922,20.71c0,0-13.277,23.165,17.053,54.694c30.166,31.358,65.447,68.193,65.447,68.193     C180.837,293.367,191.009,293.549,197.409,287.388z"/>
		</g>
		<g>
			<path style="fill:#F2D0A5;" d="M197.409,287.388c1.956-1.88,3.325-4.137,4.12-6.543c-5.544,1.604-11.761,0.174-16.046-4.271     c0,0-37.386-39.023-65.447-68.193c-30.329-31.529-17.053-54.694-17.053-54.694l-19.922-20.71l-10.81,10.399l19.922,20.709     c-8.863,19.504,3.749,40.865,17.053,54.694c1.494,1.553,65.447,68.193,65.447,68.193     C181.285,293.846,191.409,293.164,197.409,287.388z"/>
			<path style="fill:#FFE4C2;" d="M174.672,286.972"/>
			<line style="fill:#F2D0A5;" x1="165.234" y1="231.097" x2="165.233" y2="231.097"/>
			<path style="fill:#F2D0A5;" d="M265.007,133.803c-15.564-16.18-38.766-20.47-58.814,1.539c7.059-6.299,15.843-8.092,21.531-7.195     c10.584,1.669,20.042,8.315,25.402,14.839c6.485,7.893,17.029,12.931,24.691,5.56c1.761-1.694,2.656-4.335,2.894-7.22     C275.053,141.481,269.246,138.209,265.007,133.803z"/>
		</g>
		<path style="fill:#B3E59F;" d="M60.923,153.941c1.013,1.05,2.703,1.08,3.757,0.067l90.199-86.872    c1.054-1.013,1.088-2.701,0.074-3.752L95.391,1.505c-1.012-1.051-2.694-1.081-3.747-0.067l-90.2,86.881    c-1.054,1.013-1.087,2.701-0.074,3.752L60.923,153.941z"/>
		<path style="fill:#95D6A4;" d="M60.923,153.942c1.013,1.05,2.703,1.08,3.757,0.067l21.481-20.689    c-1.059,0.889-2.647,0.831-3.618-0.176L22.991,71.273c-1.014-1.051-0.98-2.738,0.074-3.752L1.445,88.319    c-1.054,1.013-1.087,2.701-0.074,3.752L60.923,153.942z"/>
		<g>
			<path style="fill:#FFFFFF;" d="M94.388,39.998c2.985-2.872,7.733-2.78,10.605,0.206l14.086,14.643     c2.872,2.985,2.78,7.733-0.206,10.605c-2.985,2.872-7.733,2.78-10.605-0.206L94.182,50.602     C91.31,47.617,91.403,42.869,94.388,39.998z"/>
		</g>
		<g>
			<polygon style="fill:#F2D0A5;" points="176.058,220.713 165.248,231.111 211.668,279.368 215.841,262.07    "/>
			<polygon style="fill:#F2D0A5;" points="199.148,198.761 188.34,209.158 220.532,242.623 224.704,225.327    "/>
			<polygon style="fill:#F2D0A5;" points="221.867,176.826 211.277,187.013 229.402,205.853 233.489,188.908    "/>
		</g>
	</g>
	<g>
		<path style="fill:#FFFFFF;stroke:#000000;stroke-width:15;stroke-linecap:round;stroke-linejoin:round;stroke-miterlimit:10;" d="    M254.696,336.274"/>
		<g>
			<path style="fill:#F2D0A5;" d="M286.652,189.744l0,90.984h10l0-90.984c-0.009-8.882-7.214-16.065-16.098-16.062     c-1.747,0-3.424,0.286-4.998,0.799C281.991,176.58,286.645,182.61,286.652,189.744z"/>
			<path style="fill:#F2D0A5;" d="M254.793,168.693l0,111.827h10l0-111.827c-0.009-8.882-7.214-16.065-16.098-16.062     c-1.747,0-3.424,0.286-4.998,0.799C250.131,155.528,254.786,161.558,254.793,168.693z"/>
			<path style="fill:#F2D0A5;" d="M222.918,182.694l0,98.035h10l0-98.035c-0.009-8.882-7.214-16.065-16.098-16.062     c-1.747,0-3.424,0.286-4.998,0.799C218.256,169.529,222.911,175.559,222.918,182.694z"/>
			<path style="fill:#F2D0A5;" d="M162.296,281.701c-0.96,16.13,8.747,41.627,38.453,39.665l0,0     c-25.956-2.038-29.259-26.117-28.453-39.665c0.377-7.986-3.332-16.49-10.588-19.031c-2.563-0.919-5.383-0.517-7.985,0.926     C159.64,266.884,162.636,274.495,162.296,281.701z"/>
		</g>
		<path style="fill:#C3DDFF;" d="M318.336,408.647c-0.002-1.459-1.199-2.652-2.661-2.653l-125.23,0.075    c-1.462,0-2.656,1.192-2.654,2.652l0.026,85.888c0.001,1.46,1.192,2.647,2.654,2.646l125.237-0.081    c1.462,0,2.656-1.193,2.654-2.653L318.336,408.647z"/>
		<g>
			<path style="fill:#FFFFFF;" d="M215.225,467.564c-4.142,0-7.5-3.357-7.5-7.5v-20.318c0-4.143,3.358-7.5,7.5-7.5     s7.5,3.357,7.5,7.5v20.318C222.725,464.207,219.368,467.564,215.225,467.564z"/>
		</g>
	</g>
	<g>
		<path style="fill:#FFFFFF;stroke:#000000;stroke-width:15;stroke-linecap:round;stroke-linejoin:round;stroke-miterlimit:10;" d="    M254.696,336.274"/>
		<path style="fill:#C3DDFF;" d="M318.336,408.647c-0.002-1.459-1.199-2.652-2.661-2.653l-125.23,0.075    c-1.462,0-2.656,1.192-2.654,2.652l0.026,85.888c0.001,1.46,1.192,2.647,2.654,2.646l125.237-0.081    c1.462,0,2.656-1.193,2.654-2.653L318.336,408.647z"/>
		<g>
			<path style="fill:#FFFFFF;" d="M215.225,467.564c-4.142,0-7.5-3.357-7.5-7.5v-20.318c0-4.143,3.358-7.5,7.5-7.5     s7.5,3.357,7.5,7.5v20.318C222.725,464.207,219.368,467.564,215.225,467.564z"/>
		</g>
	</g>
	<g>
		<path style="fill:#FFFFFF;stroke:#000000;stroke-width:15;stroke-linecap:round;stroke-linejoin:round;stroke-miterlimit:10;" d="    M254.696,336.274"/>
		<path style="fill:#FFE4C2;" d="M264.789,281.772l0.001-113.079c-0.009-8.882-7.214-16.065-16.098-16.062l0,0    c-8.889-0.002-16.085,7.195-16.082,16.071l0.002,113.793h0.314l0.001-99.828c-0.009-8.882-7.214-16.065-16.098-16.062l0,0    c-8.889-0.002-16.085,7.195-16.082,16.071l0.001,138.689c-23.582-0.883-29.413-23.535-28.453-39.665    c0.377-7.986-3.332-16.49-10.588-19.031c0,0,0,0,0,0c-7.193-2.579-16.413,5.195-17.128,17.407    c-2.049,34.518,12.23,86.344,58.254,97.829v30.503h100.014v-28.736c0,0,25.628-7.49,25.628-51.239    c0-43.512,0.11-94.518,0.11-94.518c-0.009-8.882-7.214-16.065-16.098-16.062l0,0c-8.889-0.002-16.085,7.195-16.082,16.071    l0.001,44.817l0.243,1.986l0.001-90.984c-0.009-8.882-7.214-16.065-16.098-16.062l0,0c-8.889-0.002-16.085,7.195-16.082,16.071    l0.001,91.581"/>
		<g>
			<path style="fill:#F2D0A5;" d="M312.488,217.854c-2.713-0.001-5.264,0.676-7.505,1.86c5.107,2.688,8.596,8.028,8.603,14.202     c0,0-0.11,54.041-0.11,94.518c0,43.748-25.628,51.239-25.628,51.239v28.736h15v-28.736c19.909-7.911,25.628-32.05,25.628-51.239     c0-2.156,0.11-94.518,0.11-94.518C328.586,224.378,320.817,217.851,312.488,217.854z"/>
			<path style="fill:#FFE4C2;" d="M328.586,233.916"/>
			<path style="fill:#F2D0A5;" d="M281.652,189.724l0,90.984h14.999l0.001-90.984c0-12.596-13.097-19.751-23.603-14.202     C278.157,178.209,281.646,183.55,281.652,189.724z"/>
			<line style="fill:#F2D0A5;" x1="296.651" y1="280.728" x2="296.652" y2="280.728"/>
			<path style="fill:#F2D0A5;" d="M249.793,168.693l0,111.827h14.997V168.693c-0.009-8.882-7.214-16.065-16.097-16.062     c0,0-0.001,0-0.001,0c-2.712-0.001-5.262,0.676-7.503,1.859C246.297,157.177,249.787,162.518,249.793,168.693z"/>
			<path style="fill:#F2D0A5;" d="M218.213,182.544l0,98.034h14.694l-0.001-101.13c-1.451-7.396-7.966-12.969-15.79-12.966     c-0.184,0-0.433,0.004-0.715,0.01c-2.453,0.109-4.765,0.751-6.811,1.838C214.708,171.013,218.207,176.361,218.213,182.544z"/>
			<path style="fill:#F2D0A5;" d="M157.296,281.676c0,22.451,13.747,41.627,43.453,39.665c-9.455-0.354-17.028-5.151-20.505-9.741     c-6.47-8.54-8.679-19.887-8.019-28.305c0.798-10.184-3.307-21.125-13.94-21.125c-2.444,0-4.92,1.283-7.091,3.198     C155.378,269.178,157.296,275.562,157.296,281.676z"/>
		</g>
		<path style="fill:#C3DDFF;" d="M318.336,408.647c-0.002-1.459-1.199-2.652-2.661-2.653l-125.23,0.075    c-1.462,0-2.656,1.192-2.654,2.652l0.026,85.888c0.001,1.46,1.192,2.647,2.654,2.646l125.237-0.081    c1.462,0,2.656-1.193,2.654-2.653L318.336,408.647z"/>
		<path style="fill:#A4CCFF;" d="M318.336,408.647c-0.002-1.459-1.199-2.652-2.661-2.653l-29.824,0.018    c1.38,0.093,2.484,1.236,2.485,2.635l0.025,85.875c0.002,1.46-1.192,2.653-2.654,2.653h30c1.462,0,2.656-1.193,2.654-2.653    L318.336,408.647z"/>
		<g>
			<path style="fill:#FFFFFF;" d="M215.225,467.564c-4.142,0-7.5-3.357-7.5-7.5v-20.318c0-4.143,3.358-7.5,7.5-7.5     s7.5,3.357,7.5,7.5v20.318C222.725,464.207,219.368,467.564,215.225,467.564z"/>
		</g>
	</g>
</g>















</svg>
