<?xml version="1.0" encoding="UTF-8"?>
<!DOCTYPE svg PUBLIC "-//W3C//DTD SVG 1.1//EN" "http://www.w3.org/Graphics/SVG/1.1/DTD/svg11.dtd">
<!-- Creator: CorelDRAW 2018 (64 Bit) -->
<svg xmlns="http://www.w3.org/2000/svg" xml:space="preserve" width="82.859mm" height="28.7199mm" version="1.1" style="shape-rendering:geometricPrecision; text-rendering:geometricPrecision; image-rendering:optimizeQuality; fill-rule:evenodd; clip-rule:evenodd"
viewBox="0 0 7200.72 2495.85"
 xmlns:xlink="http://www.w3.org/1999/xlink">
 <defs>
  <style type="text/css">
   <![CDATA[
    .str0 {stroke:black;stroke-width:173.81;stroke-miterlimit:22.9256}
    .str1 {stroke:black;stroke-width:43.45;stroke-miterlimit:22.9256}
    .fil3 {fill:none}
    .fil2 {fill:#ED1F24}
    .fil1 {fill:black;fill-rule:nonzero}
    .fil0 {fill:black;fill-rule:nonzero}
   ]]>
  </style>
 </defs>
 <g id="Capa_x0020_1">
  <metadata id="CorelCorpID_0Corel-Layer"/>
  <g id="_2770692617840">
   <g>
    <g>
     <path class="fil0 str0" d="M6358.94 1752.87c37.79,0 75.59,-24.76 75.59,-65.29l0 -1067.12c0,-40.52 -37.79,-65.29 -75.59,-65.29 -37.79,0 -75.58,24.77 -75.58,65.29l0 1067.12c0,40.53 37.79,65.29 75.58,65.29z"/>
     <path class="fil0 str0" d="M6455.78 258c0,-51.78 -42.51,-92.3 -96.84,-92.3 -54.32,0 -96.85,40.52 -96.85,92.3 0,49.53 42.52,92.31 96.85,92.31 54.32,0 96.84,-42.77 96.84,-92.31z"/>
    </g>
    <path class="fil0 str0" d="M5792.07 1154.02c0,254.4 -11.8,477.28 -349.57,477.28 -120.46,0 -245.64,-33.77 -351.93,-85.55l0 -393.98c0,-252.15 11.82,-475.03 351.93,-475.03 337.77,0 349.57,222.88 349.57,477.28zm151.17 0c0,-78.8 0,-157.59 -11.81,-236.39 -37.79,-249.9 -236.19,-371.47 -488.93,-371.47 -255.09,0 -452.66,121.77 -491.28,371.47 -10.79,69.82 -11.8,142.02 -11.8,211.63l0 1153.66c0,38.09 37.78,65.28 75.57,65.28 37.79,0 75.58,-27.01 75.58,-65.28l0 -604.34c115.74,54.04 222.03,83.3 351.93,83.3 252.73,0 451.14,-121.57 488.93,-371.46 11.81,-78.8 11.81,-157.6 11.81,-236.39z"/>
    <path class="fil0 str0" d="M4119.82 1631.31c-191.32,0 -351.93,-63.04 -351.93,-267.91 0,-209.38 153.53,-265.65 351.93,-265.65 113.37,0 226.75,11.25 337.77,31.52l0 103.55c0,240.9 -49.61,398.49 -337.77,398.49zm0 -1085.14c-122.82,0 -257.44,9 -373.18,49.53 -30.71,9.01 -54.33,33.77 -54.33,65.29 0,38.27 37.79,67.54 75.58,67.54 7.09,0 14.18,-2.25 23.63,-4.5 111.01,-27.02 212.57,-47.28 328.3,-47.28 238.56,0 328.31,110.32 337.77,326.44 -111.02,-20.26 -224.39,-38.27 -337.77,-38.27 -273.99,0 -503.09,108.06 -503.09,398.49 0,281.41 229.1,398.48 503.09,398.48 132.27,0 264.54,-31.51 363.74,-121.57 115.73,-108.06 125.18,-261.15 125.18,-407.49l0 -157.59c0,-146.34 -9.46,-299.43 -125.18,-407.49 -99.2,-90.05 -231.48,-121.57 -363.74,-121.57z"/>
    <path class="fil0 str0" d="M2882.16 1115.75c42.51,-18.01 77.94,-45.02 108.65,-76.54l375.54 -375.97c11.82,-11.25 18.9,-27.02 18.9,-40.52 0,-40.52 -37.79,-67.54 -77.94,-67.54 -21.27,0 -42.51,6.75 -56.69,22.52l-373.19 373.72c-49.6,49.53 -101.56,101.31 -177.14,101.31l-113.37 0 0 -900.53c0,-38.28 -37.79,-65.29 -75.58,-65.29 -37.79,0 -75.58,27.01 -75.58,65.29l0 1535.39c0,40.53 37.79,65.29 75.58,65.29 37.79,0 75.58,-24.76 75.58,-65.29l0 -504.29 122.82 0c70.86,0 120.46,54.03 165.33,101.31l403.89 443.51c16.54,18.01 37.79,24.76 59.05,24.76 42.52,0 77.95,-27.02 77.95,-67.54 0,-13.5 -4.73,-27.01 -16.55,-38.27l-406.25 -445.76c-30.71,-33.76 -68.5,-63.03 -111.01,-85.55z"/>
    <path class="fil0 str0" d="M1937.37 546.17c-259.81,0 -444.04,121.57 -481.84,371.47 -11.8,74.29 -11.8,150.84 -11.8,222.88l0 547.07c0,40.53 37.78,65.29 75.57,65.29 37.79,0 75.59,-24.76 75.59,-65.29l0 -531.31c0,-247.64 4.72,-479.53 342.48,-479.53 61.41,0 120.47,15.76 179.52,33.77 9.45,4.51 18.89,6.76 30.69,6.76 37.79,0 75.59,-29.27 75.59,-67.54 0,-29.27 -18.89,-51.79 -47.24,-63.04 -63.78,-29.27 -170.05,-40.52 -238.56,-40.52z"/>
   </g>
   <polygon class="fil1" points="402.21,2065.5 554.06,2065.5 554.06,2004.95 181.94,2004.95 181.94,2065.5 333.54,2065.5 333.54,2489.01 402.21,2489.01 "/>
   <polygon id="1" class="fil1" points="928.26,2004.95 629.8,2004.95 629.8,2489.01 934.3,2489.01 934.3,2428.92 698.12,2428.92 698.12,2274.99 898.56,2274.99 898.56,2215.02 698.12,2215.02 698.12,2065.15 928.26,2065.15 "/>
   <path id="2" class="fil1" d="M1311.75 2482.51c29.11,-8.93 54.4,-21.58 75.97,-38.17l-32.02 -49.87c-15.77,12.06 -35.38,21.69 -58.69,28.99 -23.32,7.2 -46.28,10.79 -68.67,10.79 -32.94,0 -62.87,-8 -89.78,-24.13 -26.79,-16.23 -47.9,-38.51 -63.21,-66.92 -15.31,-28.3 -22.97,-60.21 -22.97,-95.35 0,-35.5 7.77,-67.63 23.32,-96.51 15.66,-28.76 37,-51.39 64.14,-67.74 27.14,-16.36 57.3,-24.58 90.6,-24.58 21.92,0 44.08,3.59 66.58,10.67 22.39,7.07 41.99,17.05 58.69,29.69l31.32 -48.84c-21.8,-17.05 -46.63,-30.04 -74.23,-38.98 -27.72,-9.05 -56.03,-13.45 -84.8,-13.45 -45.7,0 -87.22,11.02 -124.58,32.95 -37.35,22.04 -66.82,52.19 -88.39,90.48 -21.47,38.28 -32.25,80.73 -32.25,127.6 0,46.05 10.56,87.92 31.43,125.51 21,37.7 49.88,67.28 86.65,88.85 36.89,21.58 78.07,32.37 123.77,32.37 29.12,0 58.12,-4.41 87.12,-13.34z"/>
   <polygon id="3" class="fil1" points="1534.93,2004.95 1466.37,2004.95 1466.37,2489.01 1534.93,2489.01 1534.93,2274.53 1776.32,2274.53 1776.32,2489.01 1844.99,2489.01 1844.99,2004.95 1776.32,2004.95 1776.32,2215.02 1534.93,2215.02 "/>
   <polygon id="4" class="fil1" points="1969.45,2489.01 2034.88,2489.01 2034.07,2110.39 2277.08,2489.01 2352.72,2489.01 2352.72,2004.95 2287.76,2004.95 2288.56,2385.89 2044.28,2004.95 1969.45,2004.95 "/>
   <path id="5" class="fil1" d="M2565.22 2463.26c37.46,21.69 79.22,32.6 125.27,32.6 46.17,0 87.93,-10.91 125.39,-32.6 37.59,-21.81 67.05,-51.73 88.51,-89.78 21.34,-38.17 32.13,-80.51 32.13,-127.37 0,-46.75 -10.78,-88.97 -32.13,-126.79 -21.46,-37.81 -50.8,-67.51 -88.15,-88.96 -37.35,-21.58 -78.88,-32.25 -124.7,-32.25 -45.82,0 -87.47,10.78 -125.05,32.36 -37.59,21.58 -67.28,51.27 -88.97,89.08 -21.69,37.93 -32.6,80.27 -32.6,127.25 0,46.51 10.67,88.74 32.13,126.67 21.34,38.05 50.69,67.97 88.16,89.78zm215.52 -52.66c-26.68,16.36 -56.83,24.59 -90.25,24.59 -33.41,0 -63.45,-8.24 -90.24,-24.59 -26.8,-16.36 -47.79,-38.86 -62.99,-67.52 -15.2,-28.76 -22.73,-60.78 -22.73,-96.05 0,-35.49 7.53,-67.62 22.85,-96.16 15.2,-28.65 36.2,-51.15 62.99,-67.39 26.91,-16.24 56.84,-24.47 90.13,-24.47 33.29,0 63.34,8.23 90.14,24.47 26.79,16.24 47.79,38.74 62.99,67.39 15.19,28.54 22.73,60.67 22.73,96.16 0,35.27 -7.54,67.28 -22.73,96.05 -15.2,28.65 -36.2,51.16 -62.87,67.52z"/>
   <polygon id="6" class="fil1" points="3097.07,2004.95 3028.51,2004.95 3028.51,2489.01 3319.9,2489.01 3319.9,2428.92 3097.07,2428.92 "/>
   <path id="7" class="fil1" d="M3457.24 2463.26c37.46,21.69 79.22,32.6 125.27,32.6 46.17,0 87.93,-10.91 125.39,-32.6 37.59,-21.81 67.05,-51.73 88.51,-89.78 21.34,-38.17 32.13,-80.51 32.13,-127.37 0,-46.75 -10.78,-88.97 -32.13,-126.79 -21.46,-37.81 -50.8,-67.51 -88.15,-88.96 -37.35,-21.58 -78.88,-32.25 -124.7,-32.25 -45.82,0 -87.47,10.78 -125.05,32.36 -37.59,21.58 -67.28,51.27 -88.97,89.08 -21.69,37.93 -32.6,80.27 -32.6,127.25 0,46.51 10.67,88.74 32.13,126.67 21.34,38.05 50.69,67.97 88.16,89.78zm215.52 -52.66c-26.68,16.36 -56.83,24.59 -90.25,24.59 -33.41,0 -63.45,-8.24 -90.24,-24.59 -26.8,-16.36 -47.79,-38.86 -62.99,-67.52 -15.2,-28.76 -22.73,-60.78 -22.73,-96.05 0,-35.49 7.53,-67.62 22.85,-96.16 15.2,-28.65 36.2,-51.15 62.99,-67.39 26.91,-16.24 56.84,-24.47 90.13,-24.47 33.29,0 63.34,8.23 90.14,24.47 26.79,16.24 47.79,38.74 62.99,67.39 15.19,28.54 22.73,60.67 22.73,96.16 0,35.27 -7.54,67.28 -22.73,96.05 -15.2,28.65 -36.2,51.16 -62.87,67.52z"/>
   <path id="8" class="fil1" d="M4146.5 2238.8l0 56.83 130.49 0c-0.81,27.26 -7.77,51.51 -20.76,72.73 -12.99,21.23 -30.5,37.82 -52.54,49.53 -22.16,11.71 -46.75,17.63 -74.13,17.63 -32.95,0 -62.41,-8.47 -88.5,-25.41 -25.98,-17.05 -46.28,-39.9 -60.9,-68.78 -14.5,-28.76 -21.8,-60.2 -21.8,-94.19 0,-34.57 7.66,-66.24 22.85,-95 15.09,-28.65 36.2,-51.39 63.22,-68.09 27.03,-16.7 57.65,-25.05 91.87,-25.05 22.39,0 44.89,3.71 67.52,10.9 22.5,7.2 41.76,17.05 57.53,29.47l31.32 -48.84c-21.69,-17.05 -46.4,-30.04 -74.23,-38.98 -27.84,-9.05 -56.37,-13.45 -85.5,-13.45 -46.05,0 -87.69,11.02 -124.92,33.06 -37.24,22.04 -66.47,52.43 -87.69,91.06 -21.23,38.63 -31.9,81.78 -31.9,129.57 0,46.4 10.09,88.04 30.28,125.05 20.18,37.12 48.72,66.12 85.49,87.35 36.89,21.11 79.34,31.67 127.48,31.67 48.14,0 88.28,-10.67 120.76,-32.14 32.48,-21.46 56.6,-51.39 72.61,-89.89 16.01,-38.52 24.01,-83.52 24.01,-135.02l-202.53 0z"/>
   <polygon id="9" class="fil1" points="4596.33,2489.01 4596.33,2286.24 4773.69,2004.95 4698.87,2004.95 4563.97,2220.48 4434.28,2004.95 4354.59,2004.95 4528.24,2286.48 4528.24,2489.01 "/>
   <path class="fil2" d="M537.64 824.21l103.56 0c115.28,0 209.59,94.32 209.59,209.59l0 322.48c0,115.28 -94.32,209.59 -209.59,209.59l-103.56 0c-115.28,0 -209.59,-94.32 -209.59,-209.59l0 -322.48c0,-115.28 94.32,-209.59 209.59,-209.59zm-61.31 -296.62l235.33 0c262,0 476.33,214.34 476.33,476.32l0 354.16c0,261.98 -214.34,476.32 -476.33,476.32l-235.33 0c-262,0 -476.33,-214.34 -476.33,-476.32l0 -354.16c0,-261.98 214.33,-476.32 476.33,-476.32z"/>
   <g>
    <path class="fil3 str1" d="M6948.35 530.91c127.38,0 230.65,103.27 230.65,230.65 0,127.38 -103.27,230.65 -230.65,230.65 -127.38,0 -230.65,-103.27 -230.65,-230.65 0,-127.38 103.27,-230.65 230.65,-230.65z"/>
    <path class="fil1" d="M6828.21 898.13l0 -273.14 121.06 0c24.36,0 42.86,2.48 55.51,7.38 12.65,4.88 22.75,13.53 30.33,25.94 7.56,12.38 11.31,26.12 11.31,41.13 0,19.39 -6.28,35.73 -18.81,49.01 -12.52,13.3 -31.85,21.69 -58.04,25.31 9.59,4.57 16.84,9.15 21.8,13.6 10.55,9.66 20.54,21.8 29.89,36.36l47.24 74.4 -45.15 0 -36.11 -56.83c-10.5,-16.47 -19.21,-29 -26.02,-37.71 -6.86,-8.71 -12.96,-14.75 -18.36,-18.25 -5.35,-3.43 -10.87,-5.85 -16.47,-7.25 -4.08,-0.83 -10.75,-1.27 -20.09,-1.27l-41.84 0 0 121.31 -36.25 0zm36.25 -152.59l77.56 0c16.54,0 29.38,-1.71 38.65,-5.14 9.29,-3.38 16.34,-8.85 21.12,-16.41 4.83,-7.5 7.25,-15.64 7.25,-24.48 0,-12.91 -4.65,-23.59 -13.98,-31.91 -9.35,-8.33 -24.11,-12.47 -44.25,-12.47l-86.35 0 0 90.41z"/>
   </g>
  </g>
 </g>
</svg>
