<?xml version="1.0" encoding="UTF-8"?>
<svg id="Layer_2" data-name="Layer 2" xmlns="http://www.w3.org/2000/svg" viewBox="0 0 655.5 196.02">
  <defs>
    <style>
      .cls-1 {
        fill: #f15a29;
      }

      .cls-2 {
        fill: #be1e2d;
      }

      .cls-3, .cls-4 {
        fill: #231f20;
      }

      .cls-4, .cls-5 {
        fill-rule: evenodd;
      }

      .cls-5 {
        fill: #ed1f24;
      }
    </style>
  </defs>
  <g id="Layer_1-2" data-name="Layer 1">
    <g>
      <path class="cls-3" d="M637.58,52.02c3.02,0,5.95,.78,8.82,2.32,2.86,1.54,5.1,3.75,6.7,6.63,1.6,2.88,2.4,5.87,2.4,9s-.78,6.06-2.36,8.92c-1.58,2.85-3.79,5.07-6.63,6.64-2.84,1.57-5.82,2.36-8.92,2.36s-6.08-.79-8.92-2.36c-2.85-1.58-5.07-3.79-6.65-6.64-1.59-2.86-2.38-5.83-2.38-8.92s.81-6.12,2.42-9c1.61-2.88,3.85-5.09,6.71-6.63,2.87-1.54,5.81-2.32,8.82-2.32Zm0,2.97c-2.52,0-4.97,.65-7.35,1.95-2.39,1.29-4.25,3.13-5.6,5.53-1.34,2.41-2.02,4.91-2.02,7.5s.67,5.06,1.99,7.43c1.33,2.37,3.17,4.22,5.55,5.54,2.38,1.32,4.86,1.98,7.44,1.98s5.06-.66,7.44-1.98c2.38-1.32,4.22-3.17,5.54-5.54,1.31-2.37,1.96-4.85,1.96-7.43s-.67-5.09-2-7.5c-1.35-2.4-3.21-4.24-5.6-5.53-2.39-1.3-4.84-1.95-7.34-1.95Zm-7.87,24.9v-19.3h6.63c2.26,0,3.9,.18,4.92,.54,1.01,.35,1.82,.97,2.42,1.86,.6,.89,.9,1.83,.9,2.83,0,1.42-.51,2.64-1.51,3.69-1.01,1.04-2.34,1.63-4.01,1.76,.69,.28,1.23,.63,1.64,1.02,.78,.75,1.73,2.04,2.86,3.83l2.35,3.78h-3.8l-1.72-3.05c-1.34-2.39-2.44-3.89-3.26-4.49-.57-.44-1.4-.66-2.49-.66h-1.83v8.2h-3.11Zm3.11-10.87h3.78c1.81,0,3.04-.26,3.7-.81,.65-.53,.98-1.24,.98-2.13,0-.56-.15-1.07-.47-1.53-.32-.45-.76-.78-1.32-1.01-.56-.21-1.61-.33-3.13-.33h-3.54v5.82Z"/>
      <g>
        <path class="cls-4" d="M475.53,137.12c0,6.49,.03,36.21,0,43.76-.05,12.5-11.67,19.23-22.34,12.47-2.64-1.68-5.23-5.83-5.26-8.87-.33-28.6-.47-79.41,.13-108,.34-16.76,9.64-28.18,25.17-33.88,15.71-5.77,31.73-5.62,47.19,.97,13.6,5.79,21.58,16.45,22.17,31.3,.47,11.97,.75,24.23-1.26,35.95-2.95,17.22-18.14,29.22-35.69,29.25-9.84,.02-19.67-1.86-30.11-2.95Zm.2-23.03c7.54,.9,14.98,2.51,22.42,2.52,10.18,0,15.74-4.58,16.55-12.88,.73-7.53,1.16-15.18,.75-22.74-.75-14.09-7.01-19.26-21.19-18.41-1.47,.1-2.94,.36-4.4,.55-9.11,1.17-13.79,5.77-14.05,14.83-.31,11.49-.07,22.99-.07,36.14Z"/>
        <path class="cls-4" d="M275.02,86.71c9.69,9.57,19.87,19.52,29.93,29.6,6.83,6.87,7.53,13.5,2.28,18.96-5.57,5.78-15.63,6.39-21.63,.59-10.66-10.34-20.86-21.17-31.37-31.66-2.48-2.48-5.44-4.49-8.18-6.71-.55,.31-1.1,.62-1.64,.94v25.9c0,12.11-6.89,17.61-18.62,14.86-5.93-1.4-9.08-5.07-9.18-11.47-.18-10.59-.07-21.17-.07-31.75,0-26.94-.02-53.86,0-80.79,.01-11.96,8.75-17.96,20.14-13.91,5.3,1.89,7.68,5.63,7.7,12.75,.06,18.38,.03,36.77,.03,55.16v7.84c3.6-2.34,6.32-3.62,8.42-5.56,9.7-8.94,19.26-18.02,28.8-27.12,5.48-5.22,11.83-5.95,18.52-3.38,9.12,3.51,11.1,13.5,3.91,20.08-9.67,8.86-19.63,17.39-29.03,25.68Z"/>
        <path class="cls-4" d="M393,75.58c.49-9.16-4.82-15.56-14.62-15.45-7.15,.07-14.28,1.5-21.4,2.59-3.64,.56-7.16,1.98-10.8,2.52-5.71,.82-11.44-2.67-12.93-7.48-1.83-5.88,0-11.48,5.89-13.32,20.89-6.55,42.05-9.48,62.81,.42,10.96,5.24,17.72,14.55,18.71,26.54,1.03,12.35,1.19,24.95,0,37.27-1.45,15.19-11.05,24.78-25.55,28.87-16.11,4.55-32.27,4.11-48.07-1.73-14.34-5.32-22.1-18.01-20.27-32.72,2.06-16.55,10.98-26.08,27.59-27.31,12.66-.95,25.44-.19,38.63-.19Zm.88,18.97c-10.19,0-19.43-.34-28.63,.11-7.11,.34-11.67,5.93-10.62,12.94,.45,3.04,2.02,6.69,4.32,8.57,11.35,9.28,31.03,4.08,33.9-8.74,.79-3.56,.62-7.32,1.03-12.87Z"/>
        <path class="cls-4" d="M121.57,102.3c.49-10.36,.26-20.83,1.65-31.07,2.33-17.3,13.46-27.16,29.95-30.87,11.69-2.62,23.57-2.49,35.26,.7,7.86,2.15,11.55,6.82,10.96,13.72-.68,7.77-5.76,12.01-13.54,11.04-6.4-.8-12.77-2.54-19.17-2.63-11.19-.16-16.38,5.13-16.58,16.29-.27,15.04-.63,30.11-.06,45.14,.54,13.71-10.8,17.25-20.21,14.21-4.72-1.51-7.86-4.85-7.77-10.3,.01-.37-.02-.75-.02-1.12v-25.08c-.16,0-.31,0-.46-.02Z"/>
        <path class="cls-4" d="M598.66,89.51c0,12.44,.06,24.88-.02,37.34-.06,8.33-5.2,13.13-13.78,13.1-8.49-.01-14.01-4.98-14.04-13.12-.09-24.89-.09-49.78,0-74.67,.02-8.24,5.18-12.57,14.32-12.5,8.88,.07,13.44,4.19,13.5,12.51,.08,12.45,.02,24.9,.02,37.34Z"/>
        <path class="cls-4" d="M572.65,18.48c-.06-6.99,5.18-12.3,12.14-12.33,6.83-.04,12.42,5.41,12.46,12.15,.05,6.59-5.65,12.41-12.28,12.54-6.62,.13-12.27-5.54-12.32-12.36Z"/>
      </g>
      <path class="cls-5" d="M94.85,90.17c0,4.49,.38,9.02-.07,13.46-1.87,18.68-12.2,30.27-29.86,35.16-13.5,3.73-27.12,3.5-40.13-1.72-13.59-5.45-22.72-15.41-23.93-30.77-.81-10.38-1.37-21-.23-31.3,2.08-18.97,12.13-29.42,30.55-34.3,11.89-3.16,23.73-2.84,35.42,.6,17.4,5.1,27.53,18.7,28.41,37.65,.17,3.73,.03,7.49,.03,11.22h-.19Zm-27.01-.3c-.44-5-.63-10.04-1.38-15-1.2-8.04-6.01-11.34-17.09-12.25-10.11-.82-18.35,3.04-20.46,9.66-.23,.69-.37,1.46-.37,2.19,0,10.38-.5,20.82,.24,31.15,.52,7.39,7.08,11.06,17.71,11.48,10.2,.39,17.88-3.48,19.73-9.95,.2-.71,.22-1.48,.28-2.22,.45-5,.89-10,1.35-15.07Z"/>
      <path class="cls-1" d="M36.12,39.71s40.72-8.98,55.22,22.18c0,0,6.69,11.08,2.4,47.46,0,0-6.51-59.83-57.62-69.64Z"/>
      <path class="cls-2" d="M1.08,71.85s8.18,83.73,68.06,65.58c0,0-36.01,12.62-58.24-9.09,0,0-10.89-6.89-10.58-30.12l.75-26.37Z"/>
    </g>
  </g>
</svg>